# xmcd
#
# Track frame offsets:
#	150
#	17177
#	33979
#	51981
#	69983
#	86485
#	105687
#	123314
#	138766
#	158418
#	185420
#	203047
#	220074
#	238151
#	257353
#	277530
#	295232
#	315934
#
# Disc length: 4423 seconds
#
# Revision: 1
# Processed by: cddbd v1.5.2PL0 Copyright (c) Steve Scherf et al.
# Submitted via: audiograbber 1.83.01
#
DISCID=eb114512
DTITLE=Various Artist - Black and Soul
DYEAR=1900
DGENRE=
TTITLE0=Allure - All Cried Out
TTITLE1=Usher - You make me wanna ...
TTITLE2=Sly and Robbie feat. Simply Red - Nightnusse
TTITLE3=Bootsy Collins - I'm leaving you
TTITLE4=Young Dee Nay - Walk on by
TTITLE5=Run-D.M.C. - It's like that
TTITLE6=Shola Ama - You might need somebody
TTITLE7=Lutricia McNeal - Ain't That just the way
TTITLE8=Joe - Don't  wanna be a player
TTITLE9=Guns'N'Vice - Twist and shout
TTITLE10=Nana - Lonely
TTITLE11=Cool and the Gang - Ladies Night
TTITLE12=Pappa Bear - Cherish
TTITLE13=Babyface - How Come, How long
TTITLE14=The Braxtons - Slow flow
TTITLE15=Cappuccino - Du fehlst mir
TTITLE16=Toni Braxton - Un-Break my Heart
TTITLE17=Blackstreet - Buy me love
EXTD=
EXTT0=
EXTT1=
EXTT2=
EXTT3=
EXTT4=
EXTT5=
EXTT6=
EXTT7=
EXTT8=
EXTT9=
EXTT10=
EXTT11=
EXTT12=
EXTT13=
EXTT14=
EXTT15=
EXTT16=
EXTT17=
PLAYORDER=
